<svg xmlns="http://www.w3.org/2000/svg" xmlns:xlink="http://www.w3.org/1999/xlink" width="500" zoomAndPan="magnify" viewBox="0 0 375 374.999991" height="500" preserveAspectRatio="xMidYMid meet" version="1.0"><defs><g/><clipPath id="4bf4eff71b"><path d="M 127 214 L 238 214 L 238 267 L 127 267 Z M 127 214 " clip-rule="nonzero"/></clipPath><clipPath id="754f1e1c46"><path d="M 122.4375 249.871094 L 236.527344 212.667969 L 241.875 229.070312 L 127.785156 266.269531 Z M 122.4375 249.871094 " clip-rule="nonzero"/></clipPath><clipPath id="2c89f18327"><path d="M 122.4375 249.871094 L 236.527344 212.667969 L 241.875 229.070312 L 127.785156 266.269531 Z M 122.4375 249.871094 " clip-rule="nonzero"/></clipPath><clipPath id="ede6f7ba57"><path d="M 61 89 L 155 89 L 155 192 L 61 192 Z M 61 89 " clip-rule="nonzero"/></clipPath><clipPath id="d36d287413"><path d="M 46.597656 117.261719 L 142.449219 82.378906 L 173.742188 168.359375 L 77.890625 203.242188 Z M 46.597656 117.261719 " clip-rule="nonzero"/></clipPath><clipPath id="e60dbd7756"><path d="M 46.597656 117.261719 L 142.449219 82.378906 L 173.742188 168.359375 L 77.890625 203.242188 Z M 46.597656 117.261719 " clip-rule="nonzero"/></clipPath><clipPath id="88c0c8b17e"><path d="M 64 92 L 151 92 L 151 189 L 64 189 Z M 64 92 " clip-rule="nonzero"/></clipPath><clipPath id="ef551e5a15"><path d="M 46.597656 117.261719 L 142.449219 82.378906 L 173.742188 168.359375 L 77.890625 203.242188 Z M 46.597656 117.261719 " clip-rule="nonzero"/></clipPath><clipPath id="4564944186"><path d="M 46.597656 117.261719 L 142.449219 82.378906 L 173.742188 168.359375 L 77.890625 203.242188 Z M 46.597656 117.261719 " clip-rule="nonzero"/></clipPath><clipPath id="d44976c040"><path d="M 70 98 L 145 98 L 145 182 L 70 182 Z M 70 98 " clip-rule="nonzero"/></clipPath><clipPath id="3f80429cd4"><path d="M 46.597656 117.261719 L 142.449219 82.378906 L 173.742188 168.359375 L 77.890625 203.242188 Z M 46.597656 117.261719 " clip-rule="nonzero"/></clipPath><clipPath id="ec18e4d778"><path d="M 46.597656 117.261719 L 142.449219 82.378906 L 173.742188 168.359375 L 77.890625 203.242188 Z M 46.597656 117.261719 " clip-rule="nonzero"/></clipPath><clipPath id="6ad7df64b9"><path d="M 70 148 L 107 148 L 107 182 L 70 182 Z M 70 148 " clip-rule="nonzero"/></clipPath><clipPath id="343e26579c"><path d="M 46.597656 117.261719 L 142.449219 82.378906 L 173.742188 168.359375 L 77.890625 203.242188 Z M 46.597656 117.261719 " clip-rule="nonzero"/></clipPath><clipPath id="605049eccf"><path d="M 46.597656 117.261719 L 142.449219 82.378906 L 173.742188 168.359375 L 77.890625 203.242188 Z M 46.597656 117.261719 " clip-rule="nonzero"/></clipPath><clipPath id="106a6053c3"><path d="M 100 127 L 145 127 L 145 159 L 100 159 Z M 100 127 " clip-rule="nonzero"/></clipPath><clipPath id="19ada6363f"><path d="M 46.597656 117.261719 L 142.449219 82.378906 L 173.742188 168.359375 L 77.890625 203.242188 Z M 46.597656 117.261719 " clip-rule="nonzero"/></clipPath><clipPath id="d98274c598"><path d="M 46.597656 117.261719 L 142.449219 82.378906 L 173.742188 168.359375 L 77.890625 203.242188 Z M 46.597656 117.261719 " clip-rule="nonzero"/></clipPath><clipPath id="1d3e785bd5"><path d="M 97 98 L 144 98 L 144 159 L 97 159 Z M 97 98 " clip-rule="nonzero"/></clipPath><clipPath id="f9f9a89b7b"><path d="M 46.597656 117.261719 L 142.449219 82.378906 L 173.742188 168.359375 L 77.890625 203.242188 Z M 46.597656 117.261719 " clip-rule="nonzero"/></clipPath><clipPath id="bfa30b2553"><path d="M 46.597656 117.261719 L 142.449219 82.378906 L 173.742188 168.359375 L 77.890625 203.242188 Z M 46.597656 117.261719 " clip-rule="nonzero"/></clipPath></defs><g fill="#000000" fill-opacity="1"><g transform="translate(114.001236, 239.335847)"><g><path d="M 30.546875 -90.308594 C 27.742188 -88.503906 25.792969 -83.832031 24.265625 -81.003906 C 23.261719 -79.308594 22.289062 -77.507812 21.445312 -75.640625 C 20.847656 -74.386719 19.160156 -71.730469 19.375 -70.289062 C 19.503906 -70.21875 19.503906 -70.21875 19.601562 -70.246094 L 18.746094 -68.054688 C 18.675781 -67.925781 19.125 -69.675781 19.195312 -69.804688 C 18.757812 -69.457031 18.496094 -67.441406 18.496094 -67.441406 C 16.785156 -63.054688 14.691406 -58.875 13.238281 -54.351562 C 11.632812 -49.242188 10.554688 -44.179688 9.632812 -38.949219 C 9.464844 -43.855469 9.851562 -48.710938 10.238281 -53.566406 L 9.363281 -47.8125 L 9.675781 -50.382812 C 8.207031 -43.375 7.320312 -36.21875 7.285156 -29.097656 C 7.269531 -43.632812 8.660156 -59.234375 13.097656 -76.175781 C 12.976562 -75.492188 12.917969 -74.613281 13.015625 -74.644531 C 13.441406 -74.660156 14.273438 -79.109375 13.945312 -79.121094 L 13.707031 -78.835938 C 13.976562 -80.097656 14.097656 -80.78125 13.035156 -82.1875 C 11.96875 -83.59375 9.660156 -85.925781 7.847656 -84.414062 C 6.707031 -83.539062 6.324219 -80.839844 6.125 -79.703125 C 5.976562 -79.117188 6.113281 -78.296875 5.933594 -77.8125 C 5.714844 -77.101562 5.109375 -76.597656 4.75 -75.632812 C 4.054688 -73.269531 3.871094 -70.628906 3.625 -68.1875 C 3.484375 -66.851562 1.546875 -53.457031 1.773438 -53.417969 C 1.941406 -53.574219 1.980469 -53.800781 2.023438 -54.03125 C 1.988281 -53.050781 1.859375 -52.042969 1.726562 -51.035156 C 1.601562 -51.101562 1.789062 -51.914062 1.589844 -51.855469 C 0.640625 -51.789062 0.117188 -42.691406 0.15625 -41.839844 C 0.316406 -39.84375 0.324219 -38.011719 0.0898438 -35.898438 C -0.0507812 -34.5625 -0.191406 -33.226562 -0.234375 -31.921875 C -0.203125 -31.824219 0.0351562 -29.203125 0.167969 -30.210938 C 0.257812 -29.914062 0.214844 -29.6875 0.207031 -29.359375 C 0.175781 -29.460938 0.117188 -29.65625 -0.0117188 -29.726562 C -0.179688 -29.570312 0.109375 -26.421875 0.03125 -25.96875 C -0.222656 -24.277344 -0.570312 -22.558594 -0.695312 -20.796875 C -0.941406 -16.199219 -0.367188 -11.738281 -0.0625 -7.089844 C 0.214844 -3.617188 -0.402344 2.273438 2.054688 5.097656 C 4.351562 7.753906 9.042969 6.140625 10.542969 3.21875 C 10.601562 3.417969 10.730469 3.484375 10.859375 3.554688 C 9.640625 -4.160156 10.273438 -12.535156 11.179688 -20.347656 C 12.097656 -19.433594 11.949219 -18.851562 12.726562 -17.683594 C 13.8125 -15.851562 15.597656 -14.550781 17.019531 -13.035156 C 17.652344 -12.359375 24.695312 -4.976562 24.863281 -5.136719 C 24.902344 -5.363281 24.746094 -5.53125 24.714844 -5.628906 C 25.21875 -5.027344 25.792969 -4.550781 26.394531 -3.976562 C 26.292969 -3.945312 25.949219 -4.382812 25.78125 -4.222656 C 25.164062 -3.394531 31.058594 1.207031 31.671875 1.457031 C 33.144531 2.417969 34.484375 3.3125 35.757812 4.332031 C 36.589844 4.949219 37.320312 5.59375 38.1875 5.980469 C 38.316406 6.050781 39.769531 6.585938 39.453125 6.25 C 39.582031 6.320312 39.808594 6.359375 39.964844 6.527344 C 39.964844 6.527344 39.839844 6.460938 39.738281 6.488281 C 39.730469 6.816406 45.804688 9.855469 46.289062 10.035156 C 48.394531 10.59375 50.578125 10.695312 52.597656 9.878906 C 58.089844 7.707031 61.003906 1.5625 62.960938 -3.4375 C 63.460938 -4.660156 63.621094 -5.570312 63.195312 -6.628906 C 62.203125 -9.242188 61.597656 -7.664062 61 -6.40625 C 59.847656 -4.125 57.269531 -1.203125 54.699219 -0.4375 C 53.738281 -0.046875 52.628906 -0.148438 51.523438 -0.25 C 51.066406 -0.328125 46.984375 -1.375 47.015625 -1.277344 C 47.171875 -1.109375 47.359375 -0.839844 47.617188 -0.703125 C 45.523438 -1.585938 43.007812 -3.53125 40.894531 -4.839844 L 31.738281 -10.628906 C 30.554688 -11.351562 21.539062 -18.472656 17.414062 -22.199219 L 22.261719 -17.503906 C 19.65625 -19.742188 17.21875 -22.140625 14.75 -24.640625 C 19.789062 -25.816406 24.578125 -31.441406 27.867188 -35.222656 C 30.792969 -38.785156 32.386719 -43.566406 34.523438 -47.972656 C 38.882812 -56.488281 42.40625 -66.367188 41.320312 -76.171875 C 42.875 -62.628906 38.15625 -50.238281 31.03125 -39.070312 C 33.964844 -40.804688 36.039062 -45.40625 37.539062 -48.332031 C 39.308594 -51.441406 40.660156 -54.859375 41.914062 -58.25 C 43.316406 -62.222656 44.238281 -66.375 44.472656 -70.644531 C 44.625 -72.304688 45.410156 -77.277344 44.425781 -79.140625 C 44.425781 -79.140625 44.332031 -78.359375 44.28125 -77.804688 C 44.078125 -79.574219 43.804688 -81.21875 43.175781 -82.96875 C 43.394531 -82.605469 43.769531 -82.070312 43.699219 -81.941406 C 43.867188 -82.097656 43.386719 -83.355469 43.238281 -83.851562 C 43.238281 -83.851562 42.933594 -84.511719 43.089844 -84.34375 C 41.28125 -88.976562 35.25 -93.324219 30.546875 -90.308594 Z M 34.039062 -78.203125 C 34.058594 -77.78125 34.027344 -77.878906 34.066406 -78.105469 C 35.605469 -71.128906 33.746094 -63.253906 31.507812 -56.660156 C 30.382812 -53.203125 28.902344 -49.855469 27.292969 -46.574219 C 26.527344 -45.164062 25.664062 -43.71875 24.769531 -42.378906 C 24.144531 -41.222656 22.558594 -39.671875 21.992188 -38.320312 C 22.546875 -39.347656 24.035156 -40.867188 24.648438 -41.695312 C 25.820312 -43.550781 26.933594 -45.605469 27.976562 -47.53125 C 29.585938 -50.8125 31.066406 -54.160156 32.191406 -57.621094 C 28.835938 -46.820312 22.847656 -36.527344 14.089844 -29.398438 C 14.734375 -30.128906 16.417969 -31.707031 16.390625 -31.804688 C 16.132812 -31.945312 12.703125 -28.984375 12.367188 -28.671875 C 12.886719 -31.625 13.410156 -34.582031 14.027344 -37.566406 C 14.25 -38.277344 15.617188 -45.257812 15.617188 -45.257812 C 15.421875 -45.199219 15.253906 -45.039062 15.242188 -44.714844 C 17.507812 -53.035156 21.15625 -61.769531 24.585938 -69.789062 C 25.679688 -72.269531 31.675781 -87.949219 34.007812 -78.304688 Z M 11.960938 -67.328125 C 12.042969 -67.78125 12.253906 -70.324219 12.175781 -69.867188 L 11.28125 -63.460938 C 11.550781 -64.726562 11.820312 -65.992188 11.960938 -67.328125 Z M 15.492188 -24.320312 C 15.324219 -24.164062 16.210938 -23.351562 17.414062 -22.199219 C 16.3125 -23.378906 15.394531 -24.292969 15.492188 -24.320312 Z M 26.109375 -14.339844 C 26.109375 -14.339844 26.082031 -14.4375 26.238281 -14.269531 L 26.269531 -14.171875 Z M 26.109375 -14.339844 C 26.011719 -14.308594 25.980469 -14.410156 25.851562 -14.476562 C 25.980469 -14.410156 26.011719 -14.308594 26.109375 -14.339844 Z M 14.761719 -43.0625 C 14.734375 -43.160156 14.832031 -43.191406 14.804688 -43.289062 C 14.832031 -43.191406 14.761719 -43.0625 14.761719 -43.0625 Z M 14.761719 -43.0625 "/></g></g></g><g fill="#000000" fill-opacity="1"><g transform="translate(167.338193, 223.467134)"><g><path d="M 30.546875 -90.308594 C 27.742188 -88.503906 25.792969 -83.832031 24.265625 -81.003906 C 23.261719 -79.308594 22.289062 -77.507812 21.445312 -75.640625 C 20.847656 -74.386719 19.160156 -71.730469 19.375 -70.289062 C 19.503906 -70.21875 19.503906 -70.21875 19.601562 -70.246094 L 18.746094 -68.054688 C 18.675781 -67.925781 19.125 -69.675781 19.195312 -69.804688 C 18.757812 -69.457031 18.496094 -67.441406 18.496094 -67.441406 C 16.785156 -63.054688 14.691406 -58.875 13.238281 -54.351562 C 11.632812 -49.242188 10.554688 -44.179688 9.632812 -38.949219 C 9.464844 -43.855469 9.851562 -48.710938 10.238281 -53.566406 L 9.363281 -47.8125 L 9.675781 -50.382812 C 8.207031 -43.375 7.320312 -36.21875 7.285156 -29.097656 C 7.269531 -43.632812 8.660156 -59.234375 13.097656 -76.175781 C 12.976562 -75.492188 12.917969 -74.613281 13.015625 -74.644531 C 13.441406 -74.660156 14.273438 -79.109375 13.945312 -79.121094 L 13.707031 -78.835938 C 13.976562 -80.097656 14.097656 -80.78125 13.035156 -82.1875 C 11.96875 -83.59375 9.660156 -85.925781 7.847656 -84.414062 C 6.707031 -83.539062 6.324219 -80.839844 6.125 -79.703125 C 5.976562 -79.117188 6.113281 -78.296875 5.933594 -77.8125 C 5.714844 -77.101562 5.109375 -76.597656 4.75 -75.632812 C 4.054688 -73.269531 3.871094 -70.628906 3.625 -68.1875 C 3.484375 -66.851562 1.546875 -53.457031 1.773438 -53.417969 C 1.941406 -53.574219 1.980469 -53.800781 2.023438 -54.03125 C 1.988281 -53.050781 1.859375 -52.042969 1.726562 -51.035156 C 1.601562 -51.101562 1.789062 -51.914062 1.589844 -51.855469 C 0.640625 -51.789062 0.117188 -42.691406 0.15625 -41.839844 C 0.316406 -39.84375 0.324219 -38.011719 0.0898438 -35.898438 C -0.0507812 -34.5625 -0.191406 -33.226562 -0.234375 -31.921875 C -0.203125 -31.824219 0.0351562 -29.203125 0.167969 -30.210938 C 0.257812 -29.914062 0.214844 -29.6875 0.207031 -29.359375 C 0.175781 -29.460938 0.117188 -29.65625 -0.0117188 -29.726562 C -0.179688 -29.570312 0.109375 -26.421875 0.03125 -25.96875 C -0.222656 -24.277344 -0.570312 -22.558594 -0.695312 -20.796875 C -0.941406 -16.199219 -0.367188 -11.738281 -0.0625 -7.089844 C 0.214844 -3.617188 -0.402344 2.273438 2.054688 5.097656 C 4.351562 7.753906 9.042969 6.140625 10.542969 3.21875 C 10.601562 3.417969 10.730469 3.484375 10.859375 3.554688 C 9.640625 -4.160156 10.273438 -12.535156 11.179688 -20.347656 C 12.097656 -19.433594 11.949219 -18.851562 12.726562 -17.683594 C 13.8125 -15.851562 15.597656 -14.550781 17.019531 -13.035156 C 17.652344 -12.359375 24.695312 -4.976562 24.863281 -5.136719 C 24.902344 -5.363281 24.746094 -5.53125 24.714844 -5.628906 C 25.21875 -5.027344 25.792969 -4.550781 26.394531 -3.976562 C 26.292969 -3.945312 25.949219 -4.382812 25.78125 -4.222656 C 25.164062 -3.394531 31.058594 1.207031 31.671875 1.457031 C 33.144531 2.417969 34.484375 3.3125 35.757812 4.332031 C 36.589844 4.949219 37.320312 5.59375 38.1875 5.980469 C 38.316406 6.050781 39.769531 6.585938 39.453125 6.25 C 39.582031 6.320312 39.808594 6.359375 39.964844 6.527344 C 39.964844 6.527344 39.839844 6.460938 39.738281 6.488281 C 39.730469 6.816406 45.804688 9.855469 46.289062 10.035156 C 48.394531 10.59375 50.578125 10.695312 52.597656 9.878906 C 58.089844 7.707031 61.003906 1.5625 62.960938 -3.4375 C 63.460938 -4.660156 63.621094 -5.570312 63.195312 -6.628906 C 62.203125 -9.242188 61.597656 -7.664062 61 -6.40625 C 59.847656 -4.125 57.269531 -1.203125 54.699219 -0.4375 C 53.738281 -0.046875 52.628906 -0.148438 51.523438 -0.25 C 51.066406 -0.328125 46.984375 -1.375 47.015625 -1.277344 C 47.171875 -1.109375 47.359375 -0.839844 47.617188 -0.703125 C 45.523438 -1.585938 43.007812 -3.53125 40.894531 -4.839844 L 31.738281 -10.628906 C 30.554688 -11.351562 21.539062 -18.472656 17.414062 -22.199219 L 22.261719 -17.503906 C 19.65625 -19.742188 17.21875 -22.140625 14.75 -24.640625 C 19.789062 -25.816406 24.578125 -31.441406 27.867188 -35.222656 C 30.792969 -38.785156 32.386719 -43.566406 34.523438 -47.972656 C 38.882812 -56.488281 42.40625 -66.367188 41.320312 -76.171875 C 42.875 -62.628906 38.15625 -50.238281 31.03125 -39.070312 C 33.964844 -40.804688 36.039062 -45.40625 37.539062 -48.332031 C 39.308594 -51.441406 40.660156 -54.859375 41.914062 -58.25 C 43.316406 -62.222656 44.238281 -66.375 44.472656 -70.644531 C 44.625 -72.304688 45.410156 -77.277344 44.425781 -79.140625 C 44.425781 -79.140625 44.332031 -78.359375 44.28125 -77.804688 C 44.078125 -79.574219 43.804688 -81.21875 43.175781 -82.96875 C 43.394531 -82.605469 43.769531 -82.070312 43.699219 -81.941406 C 43.867188 -82.097656 43.386719 -83.355469 43.238281 -83.851562 C 43.238281 -83.851562 42.933594 -84.511719 43.089844 -84.34375 C 41.28125 -88.976562 35.25 -93.324219 30.546875 -90.308594 Z M 34.039062 -78.203125 C 34.058594 -77.78125 34.027344 -77.878906 34.066406 -78.105469 C 35.605469 -71.128906 33.746094 -63.253906 31.507812 -56.660156 C 30.382812 -53.203125 28.902344 -49.855469 27.292969 -46.574219 C 26.527344 -45.164062 25.664062 -43.71875 24.769531 -42.378906 C 24.144531 -41.222656 22.558594 -39.671875 21.992188 -38.320312 C 22.546875 -39.347656 24.035156 -40.867188 24.648438 -41.695312 C 25.820312 -43.550781 26.933594 -45.605469 27.976562 -47.53125 C 29.585938 -50.8125 31.066406 -54.160156 32.191406 -57.621094 C 28.835938 -46.820312 22.847656 -36.527344 14.089844 -29.398438 C 14.734375 -30.128906 16.417969 -31.707031 16.390625 -31.804688 C 16.132812 -31.945312 12.703125 -28.984375 12.367188 -28.671875 C 12.886719 -31.625 13.410156 -34.582031 14.027344 -37.566406 C 14.25 -38.277344 15.617188 -45.257812 15.617188 -45.257812 C 15.421875 -45.199219 15.253906 -45.039062 15.242188 -44.714844 C 17.507812 -53.035156 21.15625 -61.769531 24.585938 -69.789062 C 25.679688 -72.269531 31.675781 -87.949219 34.007812 -78.304688 Z M 11.960938 -67.328125 C 12.042969 -67.78125 12.253906 -70.324219 12.175781 -69.867188 L 11.28125 -63.460938 C 11.550781 -64.726562 11.820312 -65.992188 11.960938 -67.328125 Z M 15.492188 -24.320312 C 15.324219 -24.164062 16.210938 -23.351562 17.414062 -22.199219 C 16.3125 -23.378906 15.394531 -24.292969 15.492188 -24.320312 Z M 26.109375 -14.339844 C 26.109375 -14.339844 26.082031 -14.4375 26.238281 -14.269531 L 26.269531 -14.171875 Z M 26.109375 -14.339844 C 26.011719 -14.308594 25.980469 -14.410156 25.851562 -14.476562 C 25.980469 -14.410156 26.011719 -14.308594 26.109375 -14.339844 Z M 14.761719 -43.0625 C 14.734375 -43.160156 14.832031 -43.191406 14.804688 -43.289062 C 14.832031 -43.191406 14.761719 -43.0625 14.761719 -43.0625 Z M 14.761719 -43.0625 "/></g></g></g><g clip-path="url(#4bf4eff71b)"><g clip-path="url(#754f1e1c46)"><g clip-path="url(#2c89f18327)"><path fill="#af1212" d="M 232.222656 215.53125 C 232.558594 216.554688 234.136719 216.675781 235.03125 216.460938 C 235.871094 216.261719 237.121094 215.519531 237.132812 214.546875 C 235.515625 214.851562 233.875 215.179688 232.21875 215.53125 Z M 128.007812 258.523438 C 155.011719 241.386719 194.09375 224.566406 227.089844 216.695312 C 227.335938 217.496094 227.144531 218.441406 226.453125 218.65625 C 225.449219 218.871094 224.421875 219.175781 223.429688 219.472656 C 221.742188 219.972656 220.0625 220.515625 218.386719 221.070312 C 213.390625 222.726562 208.425781 224.523438 203.503906 226.390625 C 189.898438 231.5625 176.363281 237.390625 163.402344 244.011719 C 157.3125 247.117188 151.308594 250.425781 145.503906 254.023438 C 140.128906 257.359375 134.851562 260.964844 129.976562 264.984375 C 129.605469 265.289062 128.371094 266.277344 127.875 266.132812 C 127.683594 266.070312 127.582031 265.65625 127.550781 265.5 C 127.375 264.726562 127.359375 263.671875 127.382812 262.902344 C 127.429688 261.421875 127.640625 259.960938 128.007812 258.523438 Z M 128.007812 258.523438 " fill-opacity="1" fill-rule="evenodd"/></g></g></g><g fill="#af1212" fill-opacity="1"><g transform="translate(185.758701, 267.673143)"><g><path d="M 1.867188 -3.480469 L 1.847656 -3.4375 C 1.867188 -3.480469 1.867188 -3.480469 1.855469 -3.511719 L 1.796875 -3.660156 C 1.433594 -5.546875 1.382812 -7.519531 1.34375 -9.460938 C 1.296875 -11.503906 1.234375 -13.507812 1.402344 -15.53125 C 1.546875 -17.445312 1.820312 -19.375 2.261719 -21.230469 C 2.632812 -22.921875 3.132812 -24.800781 4.152344 -26.234375 C 4.523438 -26.515625 4.761719 -27.125 5.335938 -27.246094 C 5.90625 -27.367188 6.128906 -26.800781 6.21875 -26.21875 C 6.203125 -26.695312 6.117188 -27.175781 5.644531 -27.332031 C 5.027344 -27.503906 4.324219 -26.574219 4.042969 -26.15625 C 3.886719 -26.027344 3.757812 -25.835938 3.652344 -25.660156 C 3.707031 -25.785156 3.792969 -25.921875 3.90625 -26.066406 L 3.78125 -25.949219 L 4.105469 -26.351562 C 4.476562 -26.804688 5.316406 -27.824219 5.976562 -27.1875 C 6.488281 -26.667969 6.480469 -25.460938 6.503906 -24.785156 C 6.515625 -23.621094 6.414062 -22.480469 6.28125 -21.328125 C 6.289062 -21.570312 6.328125 -22.515625 6.328125 -22.515625 C 6.109375 -22.464844 6.019531 -19.886719 5.863281 -19.757812 L 5.894531 -19.769531 C 5.808594 -19.632812 5.757812 -19.507812 5.769531 -19.476562 C 5.847656 -19.097656 6.230469 -19.351562 6.457031 -19.472656 C 7.421875 -19.988281 8.394531 -21.367188 8.757812 -22.367188 C 9.160156 -23.453125 8.949219 -24.777344 8.527344 -25.851562 L 8.515625 -25.882812 C 7.691406 -27.894531 5.289062 -29.910156 2.933594 -28.8125 C 1.617188 -28.230469 0.878906 -26.425781 0.363281 -25.195312 C 0.0195312 -24.234375 -0.273438 -23.226562 -0.503906 -22.242188 C -0.601562 -21.792969 -0.714844 -21.371094 -0.78125 -20.929688 C -0.890625 -20.511719 -1.167969 -19.816406 -1.136719 -19.382812 C -1.136719 -19.382812 -1.058594 -19.621094 -0.984375 -19.785156 C -1.113281 -19.152344 -1.203125 -18.5 -1.300781 -17.875 C -1.34375 -17.894531 -1.296875 -18.390625 -1.296875 -18.390625 C -1.589844 -18.347656 -1.851562 -15.425781 -1.898438 -15.097656 C -2.046875 -13.90625 -2.140625 -12.734375 -2.058594 -11.566406 C -1.960938 -10.261719 -2.003906 -8.972656 -1.917969 -7.703125 C -1.875 -7.066406 -1.84375 -6.460938 -1.742188 -5.847656 C -1.695312 -5.554688 -1.664062 -5.292969 -1.585938 -5.015625 C -1.574219 -4.984375 -1.449219 -4.484375 -1.410156 -4.566406 C -1.390625 -4.335938 -1.285156 -4.066406 -1.234375 -3.847656 C -1.234375 -3.847656 -1.429688 -4.351562 -1.425781 -4.425781 C -1.484375 -4.230469 -1.175781 -3.699219 -1.179688 -3.625 C -0.886719 -2.4375 -0.65625 -1.152344 0.160156 -0.199219 C 1.265625 1.121094 3.003906 1.878906 4.691406 2.148438 C 5.582031 2.3125 6.734375 2.445312 7.601562 2.039062 C 8.621094 1.570312 9.296875 0.308594 9.824219 -0.621094 C 11.34375 -3.414062 12.347656 -6.902344 11.542969 -10.089844 C 11.492188 -10.3125 11.230469 -11.414062 10.863281 -11.300781 C 10.523438 -11.203125 10.566406 -10.394531 10.515625 -10.171875 C 10.195312 -8.359375 9.6875 -6.582031 9.015625 -4.875 C 8.339844 -3.097656 7.398438 -1.113281 5.746094 0.015625 C 5.53125 0.167969 5.273438 0.304688 5.003906 0.410156 C 4.636719 0.519531 4.273438 0.558594 3.902344 0.394531 C 3.695312 0.304688 3.347656 -0.144531 3.132812 -0.164062 C 3.074219 -0.3125 2.984375 -0.449219 2.921875 -0.527344 L 2.761719 -0.671875 C 2.382812 -1.550781 2.085938 -2.398438 1.871094 -3.378906 L 1.859375 -3.410156 C 1.847656 -3.4375 1.878906 -3.449219 1.867188 -3.480469 Z M 1.398438 -20.101562 C 0.984375 -17.742188 0.773438 -15.390625 0.582031 -12.976562 C 0.484375 -11.566406 0.398438 -10.121094 0.453125 -8.664062 C 0.296875 -10.90625 0.292969 -13.105469 0.441406 -15.363281 C 0.613281 -18.074219 1.167969 -20.871094 2.140625 -23.382812 C 1.78125 -22.28125 1.5625 -21.09375 1.398438 -20.101562 Z M 3.183594 -24.582031 C 2.929688 -24 2.730469 -23.371094 2.546875 -22.785156 C 2.820312 -23.753906 3.125 -24.730469 3.636719 -25.617188 C 3.460938 -25.273438 3.308594 -24.871094 3.183594 -24.582031 Z M 6.316406 -25.535156 C 6.304688 -25.734375 6.28125 -25.96875 6.21875 -26.21875 C 6.265625 -25.925781 6.25 -25.613281 6.332031 -25.402344 C 6.339844 -25.472656 6.328125 -25.503906 6.316406 -25.535156 Z M 6.316406 -25.535156 "/></g></g></g><g fill="#af1212" fill-opacity="1"><g transform="translate(200.056076, 262.087191)"><g><path d="M 12.820312 -12.222656 C 12.667969 -12.175781 12.550781 -11.804688 12.488281 -11.683594 C 12.191406 -11.121094 11.976562 -10.519531 11.753906 -9.949219 C 11.105469 -8.472656 10.464844 -6.96875 9.699219 -5.558594 C 9.5 -5.226562 9.050781 -4.183594 8.570312 -4.335938 C 8.277344 -4.414062 8.1875 -5.457031 8.152344 -5.679688 C 8.128906 -5.976562 8.230469 -7.582031 7.992188 -7.707031 C 7.882812 -7.742188 7.871094 -7.234375 7.851562 -7.195312 C 7.808594 -9.058594 8.179688 -11.316406 8.449219 -13.246094 C 8.625 -14.304688 8.855469 -15.613281 7.796875 -16.324219 C 5.9375 -17.558594 4.914062 -14.925781 4.300781 -13.664062 C 4.035156 -13.113281 1.648438 -7.210938 1.71875 -7.199219 C 1.71875 -7.199219 1.886719 -7.621094 2.144531 -8.203125 C 1.800781 -7.257812 1.488281 -6.324219 1.214844 -5.367188 C 1.160156 -6.726562 1.148438 -8.0625 1.164062 -9.40625 C 1.191406 -10.085938 1.175781 -10.785156 1.1875 -11.492188 C 1.222656 -12.238281 1.320312 -12.570312 1.691406 -13.222656 C 2.328125 -14.292969 2.917969 -15.414062 3.429688 -16.578125 C 3.621094 -17.039062 3.703125 -17.53125 3.902344 -17.964844 C 4.09375 -18.324219 4.414062 -18.691406 4.613281 -19.121094 C 5.605469 -21.441406 6.144531 -24.121094 6.519531 -26.582031 C 6.664062 -27.734375 6.769531 -28.902344 6.742188 -30.070312 C 6.730469 -30.332031 6.527344 -33.351562 6.375 -33.304688 C 6.34375 -33.292969 6.355469 -33.265625 6.34375 -33.195312 C 6.222656 -33.691406 6.019531 -34.234375 5.683594 -34.664062 C 5.714844 -34.675781 6.011719 -34.261719 6.011719 -34.261719 C 6.15625 -34.441406 5.3125 -35.21875 5.152344 -35.304688 C 4.792969 -35.492188 4.347656 -35.523438 3.949219 -35.398438 C 3.136719 -35.214844 2.535156 -34.558594 2.066406 -33.910156 C 1.179688 -32.664062 0.761719 -31.09375 0.277344 -29.636719 C -0.00390625 -28.8125 -0.25 -27.996094 -0.460938 -27.160156 C -0.625 -26.609375 -1.039062 -25.574219 -0.871094 -25.023438 C -0.828125 -25.003906 -0.800781 -25.011719 -0.800781 -25.011719 L -0.949219 -24.195312 C -0.949219 -24.195312 -0.933594 -24.804688 -0.914062 -24.84375 C -1.039062 -24.703125 -0.992188 -24.015625 -0.980469 -23.984375 C -1.453125 -21.292969 -2.011719 -18.671875 -2.070312 -15.941406 C -2.152344 -12.867188 -1.964844 -9.777344 -1.589844 -6.742188 C -1.425781 -5.351562 -1.289062 -3.820312 -0.746094 -2.515625 C -0.632812 -2.148438 -0.46875 -1.730469 -0.101562 -1.511719 C 0.367188 -1.1875 1.117188 -1.253906 1.382812 -1.804688 C 1.457031 -1.992188 1.429688 -2.085938 1.441406 -2.257812 L 1.691406 -3.40625 C 2.070312 -4.765625 2.636719 -6.078125 2.976562 -7.457031 C 3.011719 -7.667969 3.039062 -7.910156 3.113281 -8.101562 C 3.207031 -8.332031 3.296875 -8.261719 3.433594 -8.46875 C 3.820312 -9.058594 4.019531 -9.824219 4.285156 -10.476562 C 4.828125 -11.851562 5.324219 -13.378906 6.171875 -14.648438 L 5.949219 -12.234375 L 6.011719 -12.355469 L 5.878906 -11.171875 C 5.835938 -11.195312 5.875 -11.507812 5.863281 -11.535156 C 5.742188 -11.5 5.53125 -10.128906 5.507812 -9.984375 C 5.371094 -9.136719 5.199219 -8.28125 5.222656 -7.453125 C 5.269531 -6.660156 5.28125 -5.863281 5.296875 -5.0625 C 5.347656 -4.574219 5.398438 -4.089844 5.570312 -3.640625 C 5.609375 -3.515625 6.195312 -2.492188 6.257812 -2.613281 L 6.21875 -2.734375 C 6.335938 -2.570312 6.445312 -2.4375 6.585938 -2.3125 L 6.316406 -2.53125 C 6.292969 -2.289062 7.335938 -1.84375 7.453125 -1.777344 C 8.054688 -1.464844 8.609375 -1.300781 9.320312 -1.488281 C 9.910156 -1.636719 10.148438 -1.945312 10.453125 -2.476562 C 11.265625 -3.96875 11.605469 -5.78125 12.074219 -7.402344 C 12.34375 -8.253906 12.605469 -9.140625 12.835938 -10.015625 C 12.910156 -10.207031 13.203125 -12.175781 13.09375 -12.105469 C 13.265625 -12.195312 12.882812 -12.242188 12.820312 -12.222656 Z M 3.777344 -31.960938 L 3.765625 -31.992188 C 3.765625 -31.992188 3.796875 -32 3.789062 -32.03125 L 3.796875 -32 C 3.808594 -32.070312 3.820312 -32.144531 3.800781 -32.101562 C 3.929688 -32.546875 4.199219 -33.835938 4.742188 -33.601562 C 5.285156 -33.367188 5.285156 -31.960938 5.304688 -31.464844 C 5.355469 -30.441406 5.273438 -29.410156 5.179688 -28.410156 C 4.980469 -26.472656 4.566406 -24.566406 4.050781 -22.664062 C 3.800781 -21.75 3.515625 -20.824219 3.226562 -19.929688 C 3.0625 -19.476562 2.902344 -19.027344 2.710938 -18.566406 L 2.550781 -18.214844 L 2.929688 -18.933594 L 3.621094 -21.023438 C 4.007812 -22.152344 4.339844 -23.359375 4.636719 -24.554688 C 3.933594 -21.324219 2.84375 -18.136719 1.363281 -15.132812 L 1.53125 -17.828125 C 1.566406 -18.042969 1.648438 -20.042969 1.648438 -20.042969 C 1.597656 -19.996094 1.554688 -19.8125 1.507812 -19.632812 C 1.71875 -21.539062 2.125 -23.574219 2.460938 -25.523438 C 2.839844 -27.648438 3.195312 -29.839844 3.757812 -31.921875 C 3.757812 -31.921875 3.785156 -31.929688 3.777344 -31.960938 Z M 0.757812 -14.609375 C 0.519531 -16.34375 0.800781 -18.136719 0.855469 -19.898438 C 0.925781 -21.394531 1.34375 -22.863281 1.554688 -24.335938 C 1.640625 -25.03125 2.835938 -31.535156 2.90625 -31.523438 C 3.199219 -31.445312 1.671875 -23.097656 1.539062 -22.121094 C 1.402344 -21.375 1.285156 -20.667969 1.261719 -19.890625 C 1.253906 -19.152344 1.058594 -18.488281 1.015625 -17.769531 C 0.988281 -17.425781 0.761719 -13.839844 0.863281 -13.835938 C 0.800781 -13.816406 0.773438 -14.34375 0.753906 -14.507812 Z M 2.203125 -17.402344 C 2.242188 -17.480469 2.265625 -17.621094 2.328125 -17.742188 C 2.265625 -17.621094 2.234375 -17.511719 2.203125 -17.402344 Z M 3.777344 -31.960938 L 3.765625 -31.992188 L 3.796875 -32 Z M 0.765625 -14.578125 C 0.777344 -14.546875 0.753906 -14.507812 0.753906 -14.507812 C 0.746094 -14.535156 0.777344 -14.546875 0.765625 -14.578125 Z M 0.765625 -14.578125 "/></g></g></g><g fill="#af1212" fill-opacity="1"><g transform="translate(212.766087, 258.183107)"><g><path d="M 9.988281 -10.621094 C 9.996094 -10.589844 9.996094 -10.589844 9.957031 -10.613281 L 9.949219 -10.644531 C 9.246094 -11.359375 8.878906 -10.050781 8.699219 -9.578125 C 8.347656 -8.730469 8.023438 -7.925781 7.625 -7.132812 C 7.296875 -6.460938 6.9375 -5.777344 6.714844 -5.09375 C 6.730469 -5.03125 6.703125 -4.863281 6.703125 -4.863281 C 6.628906 -4.644531 6.480469 -4.441406 6.371094 -4.21875 C 6.160156 -3.871094 5.957031 -3.488281 5.714844 -3.132812 C 5.359375 -2.582031 3.359375 0.519531 2.625 -0.980469 C 2.246094 -1.710938 2.253906 -2.734375 2.226562 -3.519531 C 2.21875 -3.945312 2.21875 -4.34375 2.179688 -4.761719 C 2.164062 -5.085938 1.996094 -5.375 2.074219 -5.722656 C 2.121094 -5.933594 2.160156 -5.910156 2.363281 -6.027344 L 2.84375 -6.34375 C 3.152344 -6.550781 3.464844 -6.761719 3.730469 -7.023438 C 4.125 -7.417969 4.476562 -7.867188 4.792969 -8.3125 C 5.554688 -9.355469 6.34375 -10.574219 6.445312 -11.886719 C 6.492188 -12.621094 6.339844 -13.375 5.757812 -13.855469 C 5.222656 -14.285156 4.472656 -14.394531 3.820312 -14.363281 C 2.066406 -14.257812 1.03125 -12.980469 0.382812 -11.46875 C -0.433594 -9.714844 -0.824219 -7.707031 -0.773438 -5.773438 C -0.769531 -4.820312 -0.667969 -3.890625 -0.59375 -2.917969 C -0.515625 -1.949219 -0.394531 -1.054688 0.320312 -0.308594 C 0.210938 -0.613281 0.078125 -0.875 0.0078125 -1.15625 C -0.0273438 -1.3125 -0.00390625 -1.480469 -0.0351562 -1.605469 C -0.0507812 -1.667969 -0.160156 -1.839844 -0.183594 -1.933594 C -0.253906 -2.210938 -0.246094 -2.445312 -0.25 -2.738281 C -0.289062 -3.027344 -0.390625 -3.296875 -0.429688 -3.585938 C -0.472656 -3.902344 -0.410156 -4.183594 -0.355469 -4.492188 C -0.324219 -4.765625 -0.347656 -4.988281 -0.316406 -5.261719 C -0.277344 -5.503906 -0.277344 -5.765625 -0.246094 -6.039062 C -0.253906 -6.199219 -0.144531 -6.425781 -0.0976562 -6.636719 C -0.121094 -6.332031 -0.246094 -6.039062 -0.246094 -5.773438 C -0.246094 -5.378906 -0.0859375 -4.988281 -0.0234375 -4.609375 C 0.015625 -4.191406 -0.0078125 -3.753906 0.0351562 -3.304688 C 0.0742188 -2.886719 -0.0195312 -2.46875 0.0195312 -2.046875 C 0.0507812 -1.660156 -0.00390625 -1.351562 0.117188 -0.984375 C 0.171875 -0.769531 0.257812 -0.558594 0.335938 -0.378906 C 0.425781 -0.140625 0.621094 -0.0234375 0.824219 0.125 C 1.503906 0.617188 2.34375 0.933594 3.203125 0.953125 C 3.800781 0.96875 4.289062 0.8125 4.75 0.402344 C 5.394531 -0.183594 5.890625 -0.96875 6.304688 -1.695312 C 6.683594 -2.417969 6.925781 -3.167969 7.238281 -3.90625 C 7.535156 -4.574219 7.933594 -5.230469 8.226562 -5.898438 L 9.363281 -8.488281 L 10.011719 -10 C 10.121094 -10.226562 10.175781 -10.40625 9.988281 -10.621094 Z M 2.375 -8.367188 C 2.390625 -8.4375 2.382812 -8.46875 2.382812 -8.46875 C 2.601562 -9.578125 2.679688 -10.71875 3.09375 -11.84375 L 3.46875 -12.726562 C 3.550781 -12.914062 3.699219 -13.246094 3.902344 -13.363281 C 4.34375 -13.574219 4.667969 -12.796875 4.714844 -12.476562 L 4.753906 -11.792969 C 4.769531 -11.601562 4.863281 -11.492188 4.867188 -11.328125 C 4.851562 -11.128906 4.722656 -10.996094 4.667969 -10.816406 L 4.308594 -10.003906 C 3.800781 -8.988281 3.078125 -8.050781 2.214844 -7.273438 C 2.285156 -7.65625 2.296875 -8.019531 2.375 -8.367188 Z M 2.375 -8.367188 "/></g></g></g><g fill="#af1212" fill-opacity="1"><g transform="translate(221.997994, 255.86806)"><g><path d="M 11.464844 -10.253906 L 11.457031 -10.285156 C 11.054688 -11.019531 10.132812 -8.722656 10.011719 -8.503906 C 9.207031 -7.109375 8.277344 -5.523438 6.886719 -4.632812 C 6.546875 -4.371094 5.84375 -3.976562 5.570312 -4.378906 C 5.386719 -4.636719 5.386719 -5.320312 5.292969 -5.628906 C 5.148438 -6.023438 5 -6.449219 4.738281 -6.792969 C 4.035156 -7.566406 3.554688 -6.851562 3.507812 -6.09375 C 3.488281 -5.339844 3.648438 -4.523438 3.941406 -3.863281 C 4.078125 -3.5 4.464844 -3.183594 4.601562 -2.820312 C 4.726562 -2.519531 4.660156 -2.015625 4.65625 -1.691406 C 4.652344 -0.222656 4.472656 1.214844 4.167969 2.644531 C 3.972656 3.660156 2.84375 8.410156 1.21875 6.414062 L 1.179688 6.386719 L 1.324219 6.457031 C 0.796875 5.257812 0.9375 3.632812 0.980469 2.351562 C 1.070312 0.476562 1.269531 -1.355469 1.527344 -3.199219 C 1.566406 -3.664062 1.640625 -4.132812 1.703125 -4.636719 C 1.800781 -5.144531 1.839844 -5.28125 2.085938 -5.6875 C 2.414062 -6.175781 2.707031 -6.6875 3.003906 -7.171875 C 3.925781 -8.785156 4.820312 -10.390625 5.644531 -12.019531 C 7.007812 -14.730469 8.15625 -17.691406 8.785156 -20.652344 C 9.101562 -22.210938 9.171875 -26.691406 6.375 -25.820312 C 4.960938 -25.382812 4.140625 -23.070312 3.597656 -21.855469 C 2.851562 -20.148438 2.261719 -18.335938 1.757812 -16.574219 C 0.8125 -13.394531 -0.0625 -10.191406 -0.335938 -6.910156 C -0.636719 -3.429688 -1.394531 0.0429688 -0.894531 3.597656 C -0.707031 5.058594 -0.292969 7.195312 1.183594 7.917969 C 2.882812 8.761719 4.242188 7.550781 4.859375 6.027344 C 5.5625 4.292969 5.574219 2.171875 5.734375 0.316406 C 5.773438 -0.148438 5.78125 -0.605469 5.789062 -1.0625 C 5.773438 -1.320312 5.601562 -2.363281 5.761719 -2.558594 C 5.886719 -2.746094 6.582031 -2.847656 6.761719 -2.949219 C 8.277344 -3.699219 9.753906 -5.324219 10.320312 -6.933594 C 10.667969 -7.816406 11.960938 -9.210938 11.464844 -10.253906 Z M 2.664062 -10.070312 C 2.660156 -10.101562 2.683594 -10.140625 2.679688 -10.171875 L 2.683594 -10.140625 C 2.792969 -10.585938 2.800781 -10.714844 2.777344 -10.679688 C 3.367188 -13.5 3.988281 -16.328125 4.824219 -19.0625 C 5.246094 -20.417969 5.628906 -21.796875 6.261719 -23.0625 C 6.425781 -23.386719 6.683594 -24.085938 7.113281 -24.042969 C 8.375 -23.929688 6.53125 -17.34375 6.230469 -16.535156 C 5.21875 -13.699219 3.863281 -10.957031 2.320312 -8.339844 Z M 0.554688 1.164062 C 0.59375 0.699219 0.632812 0.234375 0.710938 -0.203125 C 0.625 0.53125 0.582031 1.320312 0.597656 2.066406 C 0.589844 2.6875 0.398438 4.226562 0.613281 5.324219 C 0.195312 4.003906 0.378906 2.4375 0.554688 1.164062 Z M 2.730469 -10.410156 L 2.777344 -10.679688 C 2.78125 -10.648438 2.742188 -10.507812 2.730469 -10.410156 Z M 2.730469 -10.410156 "/></g></g></g><g clip-path="url(#ede6f7ba57)"><g clip-path="url(#d36d287413)"><g clip-path="url(#e60dbd7756)"><path fill="#ffffff" d="M 83.121094 144.164062 C 83.460938 144.136719 83.789062 144.074219 84.113281 143.976562 C 92.015625 141.578125 96.617188 119.054688 99.109375 111.964844 L 99.136719 111.890625 L 99.164062 111.820312 C 103.914062 100.167969 112.945312 90.003906 126.320312 89.675781 C 136.144531 89.421875 145.914062 95.03125 150.160156 104.015625 C 154.367188 112.917969 151.890625 121.953125 146.0625 129.113281 L 152.207031 134.929688 C 153.640625 136.285156 154.636719 138.113281 153.859375 140.117188 C 152.640625 143.242188 148.691406 143.101562 145.949219 143.441406 C 139.601562 144.234375 133.652344 148.597656 129.457031 153.199219 C 120.992188 162.480469 116.15625 175.75 113.390625 187.835938 C 113.335938 191.167969 109.578125 192.539062 107.082031 190.140625 C 103.371094 186.574219 99.363281 183.640625 94.609375 181.636719 C 90.972656 180.105469 87.25 179.292969 83.484375 178.210938 C 81.6875 177.710938 79.929688 177.105469 78.203125 176.398438 C 69.1875 172.605469 61.496094 165.234375 61.769531 154.792969 C 61.871094 151.328125 62.773438 148.085938 64.480469 145.074219 C 66.132812 142.140625 68.601562 138.246094 72.472656 138.488281 C 75.152344 138.652344 77.046875 140.753906 78.921875 142.429688 C 80.144531 143.46875 81.515625 144.089844 83.121094 144.160156 Z M 83.121094 144.164062 " fill-opacity="1" fill-rule="evenodd"/></g></g></g><g clip-path="url(#88c0c8b17e)"><g clip-path="url(#ef551e5a15)"><g clip-path="url(#4564944186)"><path fill="#af1212" d="M 110.207031 187.5625 L 110.21875 187.597656 C 110.300781 188.394531 109.738281 188.320312 109.265625 187.859375 C 97.089844 176.160156 88.367188 177.238281 79.425781 173.476562 C 71.617188 170.191406 64.691406 163.960938 64.933594 154.886719 C 65.023438 151.945312 65.789062 149.195312 67.234375 146.636719 C 71.535156 139.019531 73.207031 141.570312 76.847656 144.816406 C 78.417969 146.171875 80.5 147.265625 83.175781 147.332031 C 94.449219 146.730469 98.832031 122.292969 102.09375 113.019531 C 119.0625 71.390625 167.476562 102.902344 141.65625 129.300781 L 150.035156 137.230469 C 153.007812 140.085938 147.996094 139.992188 145.5625 140.292969 C 135.503906 141.546875 118.246094 151.984375 110.214844 187.558594 Z M 110.207031 187.5625 " fill-opacity="1" fill-rule="evenodd"/></g></g></g><g clip-path="url(#d44976c040)"><g clip-path="url(#3f80429cd4)"><g clip-path="url(#ec18e4d778)"><path fill="#ffffff" d="M 72.371094 147.8125 C 69.300781 152.273438 69.503906 156.996094 71.550781 161.023438 C 73.433594 164.714844 76.542969 167.542969 80.191406 169.410156 C 86.335938 172.804688 100.007812 173.625 106.621094 181.539062 L 106.65625 181.300781 C 100.433594 170.144531 92.1875 165.390625 87.226562 163.40625 C 87.195312 163.394531 87.183594 163.371094 87.191406 163.339844 C 87.199219 163.308594 87.214844 163.292969 87.25 163.292969 C 96.003906 163.320312 104.945312 171.941406 107.957031 175.621094 C 112.859375 158.910156 127.933594 136.386719 144.058594 135.875 C 141.804688 133.835938 139.605469 131.640625 137.417969 129.96875 C 133.25 126.792969 129.105469 125.523438 124.601562 130.867188 C 117.5 139.796875 113.152344 157.125 97.308594 158.863281 C 97.277344 158.867188 97.253906 158.851562 97.246094 158.820312 C 97.234375 158.785156 97.246094 158.761719 97.277344 158.75 C 112.09375 151.671875 113.558594 140.601562 120.355469 130.726562 C 120.425781 125.101562 117.066406 120.09375 116.074219 118.742188 C 116.054688 118.714844 116.054688 118.6875 116.082031 118.664062 C 116.105469 118.640625 116.132812 118.636719 116.160156 118.65625 C 120.417969 121.980469 122.449219 125.457031 123.28125 127.226562 C 124.296875 126.21875 125.421875 125.363281 126.660156 124.65625 C 128.605469 118.871094 125.863281 112.285156 124.59375 109.8125 C 124.574219 109.78125 124.582031 109.757812 124.609375 109.738281 C 124.636719 109.71875 124.664062 109.71875 124.6875 109.742188 C 129.390625 114.539062 130.382812 120.433594 130.570312 123.367188 C 131.6875 123.253906 132.78125 123.355469 133.855469 123.667969 C 138.066406 117.726562 137.613281 111.363281 137.421875 109.785156 C 137.417969 109.75 137.429688 109.726562 137.464844 109.71875 C 137.496094 109.710938 137.519531 109.71875 137.535156 109.75 C 140.777344 116.449219 138.398438 122.492188 136.960938 125.160156 C 137.34375 125.421875 137.738281 125.71875 138.144531 126.050781 C 148.953125 116.144531 143.511719 101.886719 130.910156 98.785156 C 120.167969 96.140625 110.996094 104.339844 107.113281 113.769531 C 103.167969 123.359375 101.761719 135.632812 96.472656 143.636719 C 92.148438 151.578125 80.882812 157.851562 72.371094 147.8125 Z M 72.371094 147.8125 " fill-opacity="1" fill-rule="evenodd"/></g></g></g><g clip-path="url(#6ad7df64b9)"><g clip-path="url(#343e26579c)"><g clip-path="url(#605049eccf)"><path fill="#000000" d="M 87.125 163.339844 L 87.199219 163.390625 C 87.195312 163.378906 87.191406 163.371094 87.191406 163.359375 L 87.125 163.335938 Z M 87.234375 163.410156 C 88.347656 164.179688 90.929688 167.132812 91.09375 169.613281 C 91.09375 169.613281 67.8125 166.417969 72.050781 148.296875 C 69.316406 152.617188 69.570312 157.144531 71.550781 161.023438 C 73.433594 164.714844 76.542969 167.542969 80.191406 169.410156 C 86.335938 172.804688 100.007812 173.625 106.621094 181.539062 L 106.65625 181.300781 C 100.4375 170.148438 92.191406 165.386719 87.234375 163.410156 Z M 87.234375 163.410156 " fill-opacity="1" fill-rule="evenodd"/></g></g></g><g clip-path="url(#106a6053c3)"><g clip-path="url(#19ada6363f)"><g clip-path="url(#d98274c598)"><path fill="#000000" d="M 103.34375 155.136719 L 102.980469 155.402344 Z M 100.261719 158.332031 C 103.050781 158.105469 105.710938 157.394531 108.238281 156.199219 C 110.769531 155.007812 113.007812 153.40625 114.957031 151.398438 C 120.324219 145.929688 123.261719 133.839844 130.546875 133.324219 C 133.460938 133.117188 136.171875 134.929688 138.914062 136.753906 C 140.589844 136.226562 142.304688 135.933594 144.058594 135.875 C 141.804688 133.835938 139.605469 131.640625 137.417969 129.96875 C 133.25 126.792969 129.105469 125.523438 124.601562 130.867188 C 117.964844 139.222656 113.730469 154.90625 100.265625 158.335938 Z M 100.261719 158.332031 " fill-opacity="1" fill-rule="evenodd"/></g></g></g><g clip-path="url(#1d3e785bd5)"><g clip-path="url(#f9f9a89b7b)"><g clip-path="url(#bfa30b2553)"><path fill="#000000" d="M 97.269531 158.851562 L 97.164062 158.890625 L 97.253906 158.839844 C 97.257812 158.84375 97.265625 158.851562 97.273438 158.855469 Z M 97.703125 158.539062 C 102.367188 155.203125 120.867188 135.3125 116.214844 118.933594 C 117.347656 120.527344 120.421875 125.34375 120.355469 130.730469 C 113.632812 140.503906 112.121094 151.453125 97.703125 158.539062 Z M 122.21875 125.28125 C 124.386719 123.488281 127.105469 117.039062 124.910156 110.460938 C 124.992188 110.632812 125.074219 110.8125 125.160156 111.007812 L 125.890625 112.8125 C 127.042969 115.972656 128.054688 120.527344 126.664062 124.664062 C 125.425781 125.371094 124.296875 126.226562 123.285156 127.234375 C 122.96875 126.5625 122.617188 125.914062 122.226562 125.285156 Z M 130.558594 123.242188 C 132.535156 121.996094 136.542969 118.089844 137.449219 110.011719 C 137.644531 111.902344 137.890625 117.976562 133.859375 123.667969 C 132.78125 123.351562 131.6875 123.253906 130.574219 123.367188 L 130.566406 123.238281 Z M 136.96875 125.171875 C 140.980469 120.191406 146.390625 108.136719 130.777344 98.753906 C 130.820312 98.765625 130.867188 98.773438 130.910156 98.785156 C 143.511719 101.886719 148.953125 116.144531 138.144531 126.050781 C 137.746094 125.71875 137.351562 125.429688 136.972656 125.167969 Z M 136.96875 125.171875 " fill-opacity="1" fill-rule="evenodd"/></g></g></g></svg>